<svg width="38" height="38" viewBox="0 0 38 38" fill="none" xmlns="http://www.w3.org/2000/svg">
<path d="M25.7976 10.3614C24.3845 7.50539 21.4408 5.5415 18.0385 5.5415C13.5552 5.5415 9.86842 8.95158 9.43033 13.3195C7.21471 13.7478 5.5415 15.6977 5.5415 18.0385C5.5415 20.6931 7.69347 22.845 10.3481 22.845H18.0119L18.0385 22.8451L18.0651 22.845H26.1905C26.1969 22.8451 26.2033 22.8451 26.2096 22.8451C29.6606 22.8451 32.4582 20.0475 32.4582 16.5965C32.4582 13.1456 29.6606 10.348 26.2096 10.348C26.0712 10.348 25.9338 10.3525 25.7976 10.3614Z" fill="#E5E5EA"/>
<path d="M12.8249 26.4419L9.0249 31.5086M17.5749 26.4419L13.7749 31.5086M22.3249 26.4419L18.5249 31.5086M27.0749 26.4419L23.2749 31.5086" stroke="#9BE3F5" stroke-width="1.58333" stroke-linecap="round"/>
</svg>
