<svg width="73" height="70" viewBox="0 0 73 70" fill="none" xmlns="http://www.w3.org/2000/svg">
<path d="M54.6161 35.6969C54.6161 45.5544 46.6251 53.5454 36.7677 53.5454C26.9103 53.5454 18.9193 45.5544 18.9193 35.6969C18.9193 25.8395 26.9103 17.8485 36.7677 17.8485C46.6251 17.8485 54.6161 25.8395 54.6161 35.6969Z" fill="#FFB800"/>
<path d="M34.218 2.54977C34.218 1.14157 35.3596 0 36.7678 0C38.176 0 39.3175 1.14157 39.3175 2.54977V10.1991C39.3175 11.6073 38.176 12.7489 36.7678 12.7489C35.3596 12.7489 34.218 11.6073 34.218 10.1991V2.54977Z" fill="#FFB800"/>
<path d="M34.218 59.8009C34.218 58.3927 35.3596 57.2511 36.7678 57.2511C38.176 57.2511 39.3175 58.3927 39.3175 59.8009V67.4502C39.3175 68.8584 38.176 70 36.7678 70C35.3596 70 34.218 68.8584 34.218 67.4502V59.8009Z" fill="#FFB800"/>
<path d="M69.9148 33.1471C71.323 33.1471 72.4646 34.2887 72.4646 35.6969C72.4646 37.1051 71.323 38.2467 69.9148 38.2467H62.2655C60.8573 38.2467 59.7157 37.1051 59.7157 35.6969C59.7157 34.2887 60.8573 33.1471 62.2655 33.1471H69.9148Z" fill="#FFB800"/>
<path d="M10.1991 33.1471C11.6073 33.1471 12.7489 34.2887 12.7489 35.6969C12.7489 37.1051 11.6073 38.2467 10.1991 38.2467H2.54977C1.14157 38.2467 -6.15544e-08 37.1051 0 35.6969C6.15544e-08 34.2887 1.14157 33.1471 2.54977 33.1471H10.1991Z" fill="#FFB800"/>
<path d="M11.5264 14.0613C10.5307 13.0656 10.5307 11.4511 11.5264 10.4554C12.5221 9.45965 14.1366 9.45965 15.1323 10.4554L20.5412 15.8643C21.537 16.86 21.537 18.4745 20.5412 19.4702C19.5455 20.466 17.931 20.466 16.9353 19.4702L11.5264 14.0613Z" fill="#FFB800"/>
<path d="M52.9944 55.5295C51.9986 54.5337 51.9986 52.9193 52.9944 51.9236C53.9901 50.9278 55.6046 50.9278 56.6003 51.9236L62.0092 57.3324C63.0049 58.3282 63.0049 59.9426 62.0092 60.9384C61.0134 61.9341 59.399 61.9341 58.4033 60.9384L52.9944 55.5295Z" fill="#FFB800"/>
<path d="M58.4034 10.4555C59.3991 9.45974 61.0135 9.45974 62.0093 10.4555C63.005 11.4512 63.005 13.0657 62.0093 14.0614L56.6004 19.4703C55.6046 20.4661 53.9902 20.466 52.9945 19.4703C51.9987 18.4746 51.9987 16.8601 52.9945 15.8644L58.4034 10.4555Z" fill="#FFB800"/>
<path d="M16.9352 51.9234C17.931 50.9277 19.5454 50.9277 20.5412 51.9235C21.5369 52.9192 21.5369 54.5336 20.5412 55.5294L15.1323 60.9383C14.1365 61.934 12.5221 61.934 11.5264 60.9383C10.5306 59.9425 10.5306 58.3281 11.5264 57.3323L16.9352 51.9234Z" fill="#FFB800"/>
</svg>
