<svg width="39" height="38" viewBox="0 0 39 38" fill="none" xmlns="http://www.w3.org/2000/svg">
<circle cx="24.0854" cy="18.2084" r="5.62397" fill="#FAD631"/>
<rect x="23.2822" y="6.96045" width="1.60685" height="4.01712" rx="0.803424" fill="#FAD631"/>
<rect x="35.3335" y="17.4048" width="1.60685" height="4.01712" rx="0.803424" transform="rotate(90 35.3335 17.4048)" fill="#FAD631"/>
<rect x="15.564" y="10.8228" width="1.60685" height="4.01712" rx="0.803424" transform="rotate(-45 15.564 10.8228)" fill="#FAD631"/>
<rect x="28.6304" y="23.8892" width="1.60685" height="4.01712" rx="0.803424" transform="rotate(-45 28.6304 23.8892)" fill="#FAD631"/>
<rect width="1.60685" height="4.01712" rx="0.803424" transform="matrix(-0.707107 -0.707107 -0.707107 0.707107 32.6069 10.8228)" fill="#FAD631"/>
<path d="M20.6075 18.2197C19.4264 15.8328 16.9663 14.1914 14.1227 14.1914C10.3758 14.1914 7.29446 17.0414 6.92834 20.6919C5.07662 21.0499 3.67822 22.6796 3.67822 24.6359C3.67822 26.8545 5.47675 28.653 7.69534 28.653H20.9518C23.836 28.653 26.1741 26.315 26.1741 23.4308C26.1741 20.5466 23.836 18.2085 20.9518 18.2085C20.8361 18.2085 20.7213 18.2123 20.6075 18.2197Z" fill="#E5E5EA"/>
<path d="M20.9367 17.6544C19.6099 15.2599 17.0563 13.6372 14.1227 13.6372C10.2239 13.6372 6.99504 16.5029 6.42653 20.2432C4.51916 20.7933 3.12406 22.5511 3.12406 24.6359C3.12406 27.1606 5.17069 29.2072 7.69534 29.2072H20.9518C24.1421 29.2072 26.7283 26.621 26.7283 23.4308C26.7283 20.2406 24.1421 17.6544 20.9518 17.6544C20.9468 17.6544 20.9417 17.6544 20.9367 17.6544Z" stroke="#373737" stroke-width="1.10833"/>
</svg>
